<mxfile>
    <diagram id="UcJDbqCm2NOC9z3hiDtO" name="ページ1">
        <mxGraphModel dx="927" dy="683" grid="1" gridSize="10" guides="1" tooltips="1" connect="1" arrows="1" fold="1" page="1" pageScale="1" pageWidth="827" pageHeight="1169" math="0" shadow="0">
            <root>
                <mxCell id="0"/>
                <mxCell id="1" parent="0"/>
                <mxCell id="3" value="" style="rounded=0;whiteSpace=wrap;html=1;fontSize=18;" vertex="1" parent="1">
                    <mxGeometry x="220" y="140" width="620" height="450" as="geometry"/>
                </mxCell>
                <mxCell id="4" value="" style="rounded=0;whiteSpace=wrap;html=1;" vertex="1" parent="1">
                    <mxGeometry x="360" y="197.5" width="80" height="340" as="geometry"/>
                </mxCell>
                <mxCell id="5" value="java" style="text;html=1;strokeColor=none;fillColor=none;align=center;verticalAlign=middle;whiteSpace=wrap;rounded=0;fontStyle=1;fontSize=18;" vertex="1" parent="1">
                    <mxGeometry x="360" y="207.5" width="80" height="67" as="geometry"/>
                </mxCell>
                <mxCell id="6" value="css" style="text;html=1;strokeColor=none;fillColor=none;align=center;verticalAlign=middle;whiteSpace=wrap;rounded=0;fontStyle=0;fontSize=16;" vertex="1" parent="1">
                    <mxGeometry x="360" y="267.5" width="80" height="60" as="geometry"/>
                </mxCell>
                <mxCell id="7" value="html&lt;br&gt;" style="text;html=1;strokeColor=none;fillColor=none;align=center;verticalAlign=middle;whiteSpace=wrap;rounded=0;fontStyle=0;fontSize=16;" vertex="1" parent="1">
                    <mxGeometry x="360" y="327.5" width="80" height="60" as="geometry"/>
                </mxCell>
                <mxCell id="8" value="" style="rounded=0;whiteSpace=wrap;html=1;" vertex="1" parent="1">
                    <mxGeometry x="470" y="202.5" width="350" height="97.5" as="geometry"/>
                </mxCell>
                <mxCell id="9" value="※一定時間内に受けた受講者を表示する" style="text;html=1;strokeColor=none;fillColor=none;align=center;verticalAlign=middle;whiteSpace=wrap;rounded=0;" vertex="1" parent="1">
                    <mxGeometry x="510" y="282" width="250" height="67.5" as="geometry"/>
                </mxCell>
                <mxCell id="10" value="詳細" style="rounded=1;whiteSpace=wrap;html=1;fontSize=13;" vertex="1" parent="1">
                    <mxGeometry x="750" y="211.88" width="50" height="23.75" as="geometry"/>
                </mxCell>
                <mxCell id="11" value="" style="shape=image;verticalLabelPosition=bottom;labelBackgroundColor=#ffffff;verticalAlign=top;aspect=fixed;imageAspect=0;image=data:image/png,iVBORw0KGgoAAAANSUhEUgAAASwAAAD/CAIAAADEwnwXAAAXk0lEQVR4nO2d25LjKgxFlVPz/7/s8+A0wVwFSELCWjVV4yQ2YGAjce3PdV3gOM4+/tudAMd5Oy5Cx9mMi9BxNuMidJzNuAgt8fl8Vm4eetwRw0XoOJv5tzsBzjBtg9aec4qf9dkpJXy8JKzw+aSFFb5JfkpUWrvHi14J7o4eyHVdt8DCxY33CXXiIrTBon5uu3dd1x2Om0FVeGHY4BZPcCwbdyb35OXrCtSGW0ID5LLJHc7E82wH9R6/FPOm8T21a1ZchCeT6C2I+SU6RLY4xXsk/QWfojDAaG3IK1/szYYw8y+PIX612psmwgsf84v8WVpchIcTV8S8vberwFoLknwfRqSKjyBfn9trcBG+iLYpsE7XsNekuB0X4YGoqmEcFFcpxNYvuTlcx8NXtftjgh9BlvQSLkLnQIqy6YoNfz8tLkKTtEcRuk8dj6039Xlbhxjy+p/U0O4i2NrsQuP7etQS6nBL6FCixAINWcLt69pdhA4l3BU4rH1NvsxXFBV/Ujg0Ci5CE5w0v7dObW6wdnO8dAHzbHEjGCsuQhu8WXWLBB3Wfo0/ujvqOC1qCsllls8N6nREb3x01ADyDpJFMEs94x1e04M35LgIDTB6MoXvGLSFu6MGwCsqmbt3KZrA9xOeQ7xjIO4IOcpxER5C0QV1HZrARWiAtpDujYKNIfjiTkJHD94ntA1mDCbf9eOowi2hAYI1S4zekK7e6ZqaOOjJLaENipviRy2b8jlrcsKCtfb7Fu+RdBzcRbHH+jzh8a5pftIMVBoyJH7Qk/ODRD8Y+6CT7lp2P+jJYYTWk7Trmtb8RrsHPZlsDl/IkOHiu3k7xdQ2Vm8n+M56ZwbultuuSWzgBz05ZMiYKdMTiTXbuCUxc7gI9SKsCrLRGvL6nx309PixssMw/7KhzL2idRFqZJd/SOCa8ldmzISeH/TkLLHXLVx1TcUTXjTgftCTM4+SjpndicQEP+jJGUBbI21l1HRuVVr861BoHLgIVaDT7OgcNcVYKj/oyRlgonLILw3VXIMDftCTM8OEWjB6YLJd2kziMfh+wm3MKXDvwKmtSXAreJ9wA3PenQZDpLxzZRQXoTSsWgpdns+H62+z6BytMY27o6JM113EYEz6Z8lYPUd3TQlxEQrRPhOt+2zjwUR+t6EKP/Fx+TluRLhTIcGi81as6Nd1JV+HGP7WiKTfM+Gu6SKefezwzNolAZb/WEV8dBjvTJfrcAF3RxlZcUHrYaZfXFd1rDI+ToXVb3TXdAUXIRfxEUNEARb6ft3wJXXoozVzuBdBD8dMWiK/dhSlUzR/l+Rpy2PnjuIwfJ6QGFb/8w54Iorr+oYjMMvnE4mjuDtKCW3Ny/3PlU7mn4Dva/YunLumeNwS0kDrgxXnHqgUfi+mkTGJ7ppicJ+BAMKq3J76W09PPnko4De6a9rGc2cVQgMVE4sESDccFnU4GsUorsMGnjXzUNXdmvxgtu5iFppSxTWUKnDXtISLcBKSKtuQ30oUmAe36FAmCnN4jsywXpO68oMFo4FMXk2HK1FjcB0meHaMsV5H2/IDGoVjQ6gt8nbXVBIX4QDLmyEeH4shEXm5Q0Op5fS4ayqG5wKKZf/w8bEmv5UokqAGR1PLCZNxTbmj0I+LsM9Kg42R32IUJKE1Nh+6SeTm1S+PYWGI8vGxIT9AmALMoZrxzVMTGyH8cuw+WsPEe9+8y0rNy1dd16LADWOW9+wuBlt68HvB119txv5S19QXcJeZ3g0Yr7q+LgIFShKtoSn+6jsSWVBXDzSw6M7dtOUHfNOASR0ej6RrD8FdU1Le9bZdZo/lfXxsP804Ddg2ISNxdg+JcteUEBfhj5VBxZvu0yTHrnUV+Pn7cNWUh0jCdh3KRKGBV7wkhum5tRuM/IBpGjBOyfW44XdnzUh2jDYAp1+N4Q06PP8Nu4zWpFH5AYUBrI6OZgpMbihEXRRk1dwB8DvYbY53Td++s35uhdcNUn7AV4E+4f/WX6JN0xBujF8nXJcHY1ovy72DXuAQgL28V4RD9WZCfsBab54GsNr3u3+vVWKEGq+/E6K6OixHQQe31DdybOvSZmKfwQ0+t8hXov3SEEtuZFa9n6RK1/EnTOaRJwznmcTT3gfD6Ha7myH5wVYXtHnGDC5tdTVKDkE1ojip3h71Ml3QCzUfH4dySMwFXUnDWCJHBnImoxjnJNf0RSIcOvThZjRvNCgQmYyZpA6q0V1TJCe8Awb82Uc3E/IDpob5OQs/seC7cRtMLQ+qjMOSRTGYHvN12PwLdOnWg0X5gRoD+HuI6JDS+iO9FCUTk+6aNjl8F0V3M0Sy50inAj9Qsz4ETGxceKwUuEpa/Pz9m41iMD22t18cawmHDOBcHqhyQR9Pzxi3iSOGvxfpQ5Wuox+WUeNMEbZr4br/2Y1iiSkX9BEA54Glz/u/F+WHSmqcaFNGMddLNJZcDM1ZssfHwwzg79mlQ3FIdfi9qfQlZ72zpUNLae3SkAeJ/EDKAC6aC8YNU+X7vxf9J6Y2c8xhyDU9R4T1tVqPjyuvKzMGsx4FSTrnlrZjn5BSowmTaCCJGIp5TSs/0O2CPoIk+0NRnDoMURSVR5fT+nWoPX1divIglB+ocUHxDQFhguf2mkyuNGLrOip3TW2LMK9ttPIrRkHDoAEsbJZH3EzF6KaT1elWHjWqNYlKk4Uh22/++JVEfqDDBW3trEfcT4KMDiHJcOquo04dmtzUm5QWufxAbB2MYh8p4RrcU9veBFyLApKcDyEkamyeA9COQqFrqrFhaPM8QOXxE5X8QIcBrAazwxIOBT7dOQxRQKMIKJxVVSZRUVK6xGXDIT9QMwbTCqazGOiRL0zvgmmnFnUImLJYU6Mek2hGhNHIxON7wuTrnwbsKjDx6PaaRAkdfu8rfYmLVINJRA2L55Qm5ao1YP09iwqklR/odkEBrcDGNTkyOgR80UwN5NDO6EwE1R+YKeqteBtH2YcyYJIfWHBBoZnIdjVlHYroBn7hDmtrRwH4MpoayNk+WjPTxS/NzlUN5vpiYj7/E/gUSLoOpq1ATAG1A1kHuW1lJf759KOdVWQUcW3PhcBiCTHEBjD5BjKJose4PwC8BhCfmMGg40tKjyAw4ecvNogrga/bQ1ixV0XzWLKN+CwK+f8NLCqdhkRrUM4T/hmuT/Iyoz7qLb84e8hrjq1pwFqPYDTwja4plQ5hpewQapzLosVeWF+ENVczvyeOfjq/7pCicIaeRkZhwAVtxbOQftZR03bgJDoEEpPeVON9oLnkqGlHhMh05PKbgLXv9xeFJRe0HA9F5djlmtLqENaLsj6Qc8EFH/qtVUWIl63lA6RDCyxuuPxEEQMIW6fI8exyTQl1CIRlGofR6zomJK7ixAhIWYS5C5r0RBvf19xXTH7xyQ/cAGbsck2pdAhMTUnNPNbT8L29NCqJoWoJa8Obxe/zHA/XQ54Ph1okpgE5uxDcU1gCJpFbh8BQyt88QfujtVFJDGTuKGb8pkYoksSurmerkAv6YXRBBYYHuE1iUeSEOoTBtr5BWvfuT8wlQNknrLUEuAz6zgpeF4F9B1YDYtkFbcA3WlMTOYcOYaG2pM/eaYPCARx5P3C8wv8gE2HsfCY/DdnouDxyNQIuiwUMoGkXtIa8axp0SBUFUCx8AWh1CJObK/72gA6JJ+shywhk5/Cv+O9H0nax0REtJsNd0GnkXdNbhyTGMI6lUT3CbdUg0LteulV6fnQUmoOctS8Ti5wnsZssTLvYcFYlXFDmady9CgzIu6ZA5JSGWJLKMNO1ufoDpO3QsOORGor8JjKeACPTFYQDOaXQo2sjLihVIlm94iSRJIu8i7H8BYuvT/cD38cFBKJIhPDrPX4/DiVttN+ICzS+lKuRB4eWhAwPY/X9fj22+cog5fLEaPzTaOHFh7rsoed5uyI3S+mIywM+d8hLAdbiGZxHFaY42EYVchz4XLnHhHIPhTWtQEmUnra2OGi2Osmh0gXdosAbsVHTuUkL4v6IuGuoS4R5eZCsMIShclI5CrpRgTdio6Z4HRJr7zkvLzlCpkuERfA6bIzpodSo0gB+k/OnAY70DCWDySTGIm/rEKm9seLbmq+qRUi7ouIvzMoCAEEFqhoMG0XAJOY6ZBl1C2zqCgbUiTCxZrQrKpKIfh+eY2JKXNC58OMLvrhYJxJD4v90KNJsxdVBtqHUODqacH1nbJA3Tw3lRT2B4WdxhFE7pvDh58s9Ron5oguj0Ezhr3T5BrJaZIl2G3WWsAGhU9og6X2pmj0fjYLPXoXwa1FPkOT56JqNqSg5A0ejUYR51eHoHLajXp3kiJBxQWtRsM4uxFGs5E8IJ/qSIGG9iP8ungmX77RrFGERfOeQtvlfUSN37QdcjWEdSglRjL4sJj/n0jv2pgrGyMyIEBiW2w/GPqbGXS5oDSWuKSb35BxRBQoEtSJs1xhWHXYrK0aNrFsQYNbGbnRN8X6EqCNaiH3DBJJSEdZAdg65W/0Qy30R1zAlLmgNYdd0ukc9nbr+q+2eFcwxJkLgmzm8AD4wd9RkrkamWk6lcNbGYiUTwqPsElGjQNAswoY14+4crhhSwmHVBFphk5vE/H1HpxCjrUxsEml2BXctZtIrQgwNHcp4pI1IadXIvUxsOoTa2y0EO28GO5HqmBXMsSpCsZnDdRbVKDOUMpeq0aeaAd6hsQ3M6OsKBlSLsN1OMxYYjyGdUKOMMce7puTa+wv2Fz7v+zbM5L6F9apF2GXvzGERjHqRahSuFo2Uj2pvLuXsZlBNJUmwLcJAUYdbuoVD1NQoMM9RS08cNZPdS6Camq+WtdauYEC7CBFT51ydQ0kN842pTqQk7I0QSENs+lhyG9cV3NtYG9jK1IUs9+5wlhvOeJJ64lmIlMC6FykhxJiM7k6EIzY1j46AOfw1tFtCJLXOoX6PNCdJc6xD8hcpBi6WY4RrRMtp1t0VDBgQ4ZCQaJ1SDRqOtUHlrG53eiFbI0qfz2gfYnsRGxAhElUzh+TqTWzjypTj6FNDjL41V0IUzwrmnCNCqIxxa7Bmo+QeaZz++FfczqAB7cnkFe1mpWqajZT5USIElTOHrDSGVeV9TqSA2QebjHQFAzZEOGHNqHQ4bUiFLXCiPf3GP04dZWoHFa4ho06YokgIWRqvyseO9RPNUqyzPs8xgUCNJN81/0izqa5g4EARgsC8E44VIZkDt/RUJCk6Sh+PGRGOVui7PpCUuiEtxVPtatOcSJXM/I53BTX4omBIhNP8+T96K2WN0TQXB1GnHyeH4/imX5qNle2Dk0WYdw53pIFA/EkgRbUUvxRreroC5k2Fza5gwJIIJ6oUVbu73ZDGq0k57JXUxkXOeAeDUeKLgi0RzhE6h9uFNEGc5uuP/Lbm1uf9b810juj3ra3NCuacL8LArqrILQPMHuKNCRByRC1jTIRz9SkerUDcDQCF0t1lUtrxIn0qkkBWKO+2XYv3CqU5HoYeXxTMiXCaaJDmiMbTCHwH2v/KUYuU5nmLCOFXFTYUGpMVHWrO5dPA2tx9zaB9BYJFEa5XpumnVXmkUxvYacIZjLT8/VK8a4WgyhcFiyJcQcPM4Uvgc0StzwrmvEuEsG9ZKa0VnW7LZZIh0cadokAwKsLlmnRv9tkS9SRxvKuDinRB9SKq/jQf7314woI/qs0XBaMiXCTaele74/5ZJjljkNQh1qZEwBHVpqJF3ihCAAjlKWnVNCxeIaSyhJUvvvD/OXl4Y1WE6xV6ujHd65FSGQHWjf/tUJfiXUuvQl8UrBxvQU6ogoYOpAnnVtCGSXokHACrI3opVdEiLxVhgpgOp+0PX+WjSo+AI3oqVt1RINuq970YCumw3h0hXTkPa55uVlCtFTUswkWCkFSWywPmiQSCBoXREb357kdTqqJF3ivCGMIDaRBx6Tp1ApaTxO6IHqi7B7ZFSO4WfhLnpx62e6QJmIZirEEhzV3NVtS2CAnRuaxUrOrg25SiGaRP43ELRBu8WoRJzRNrKJE1XrjxnrDt7A0W0yndyjAvQlq3cKhzyLz4a0OdWz64oMXAG1F3BZUL2LwImeBu4412KePazO6Ivoa3izAXg4YWc2PLjXaVeaKvdAWVm7JFThAhuVXBFzeHQdte4fAvNTDSOfRSTKd0a+UEEXIQzrPk8462HDaBpJ02Xkd0/9tL4yK02j3bBbsjWohRRcPExyEi5BAScuaQMGpVta39XmPLP7vvxTYrqCpLaxwiQqOInTQxR5483jWiut5eDhchAMKaubsK3I4ox8mIRjhHhPx/cYExarVVbX0Kp/NqnK2b2lxNOEeEfLAuK2U9ZoKEPx1eQO6IvmmBaAPfWf+lLYbr4nLGOA6toOPKLjgjyVDePFFxlAjprcoF8AH4AFxfHXIchKGtntUaBBYzyPbqhgR8lAhlKOpwTv96KgpGeJQvqNPwb8L7hD+64yu0ncPtCrwN+/0v4bq+/55fEg194bqC2/NHjNMsIfc4B1XncGMNW/E2KbOX8+1tCfg0EQpQ6xxqHucU6ualkZZy460LRBu4CB8MCWl6kEZGq82Jzflgl9oatBOhtjnj4MA+ocCC7JXOIXf16nbz1iOfzGGpWUFzAnZL2COapXh8Xeoc7vJIt3ibbar5YEkdQhxoCRcZ3dI6ZBIIJTo6tknLsDEc6QqaM2WLnGkJhS0SsnO4niSmbt4cA5ksOCtoUcBuCZfIO4c1E7FSOQS6eXOgXtYXiPY40xIuMmRImZaVKuzmLcF0Gs0RHGsJJQ+t6HYOkRVrbzdvjk4+y84KGhWwW0JK7s5hYki7NcO60au+ry8QxeEiLDM6tBOcUvQgTTWcQ5jqCho1ZYsc644CoUd614peSOXdAs8jq815m0iqWS34RnYF7JaQkmhZafgLpNf5Rg8A4PHKvkB0CBdhlZXJxrs2QsHt/DzvOZHZ97JryhY5XITy68gqy9l+l2IpkaOoOtkXNS3gw0W4heuyXSf6dG3dua/OgYuQngMVOKi6A3OAk1dk1tqSsc/QSMMh9W/Z1o3mA0EZmcUtIY7KhqZDwAylHPniOnARUmKmSeZXnebDPrThIuyAr0yq69yOoZRDso6fV4jwja3yawYwDyjZV4hQgP1VQaXq3tj8jeMi7POtSfVavKeeqVRdTleHrtK3iJCvSZarQ0ZUl3NC5nPyFhGaxKzqnCFchCh+HulzqpC4JT5XdTVjeIYpW+RFIiR3ighCO1d1ORrzXwcvEiEtMzXg9QtTfLC0iIsQy28FKZ7Xq66NC/LmXSKkaonn//bl66scexEY5F0iJKF8sm2NQ+oJJe6UJrgIh/mOkdZ/djC4DgOvEyH9GF2iyFNPjtHEYQJ+nQhX+JT2QDeWszltDtPSNCefO0qL1xhyJP9UgWbeKEIve9Oc1xq+UYQTnFfwSvAGEVyEGFyBrLgOXypCfMG7AgV4eXG8VISOowcXYYsj212dvNkpfa8Iu6XuChTmtSXyXhE6jhJchGVObXSV806n9NUirBW5K3AjLyyUV4uwyMGFbYW32UMDIozLY7RsXlWW76FmKlce34gBEd58Pp8775KL8DHcNhRs0ui6GVTCq8pF+1amkPvxPsC7eMhL5eySNgdy52etCY6rSvup5BF5VItwThVJ/ubZXQzTFaiQXIehNENDXLwn/tj4KWajj6pXhLHdC85JXAaYk2Qx0nrbMIA54kKMq0S4IfGSzDWmekWYZGVRco1fJ3ApmqPoi4aL204mNySlrEGxekV4k/QDY5KWb6UJ1FASzihDJV4cRyBvx+fQLsKYYt+g+KtzPO1+YHInlPxYPY6rahF2h1i6j+TfKMl3Z47Y1YSKOxoI4+rxN0kIGtArwng8BqIsazdgEwMzjiES7RVrRW3QLn8k+WYXekXYcD6Z5gkdo2AmHgpnVapRo14Rxlgfg3b4iD2mfM4wV1rO9upkQ4T5JOF9sT37nO3EHb9QT4oVo7ZIgzmBfWyIEDkO5ryWpIdiq5LYEGENzNJtVasEnXWKhZ4v7SgunxJI3gSWGgzHORIzW5kc51RchI6zGReh42zGReg4m/kf4lSWGCU1HWMAAAAASUVORK5CYII=;" vertex="1" parent="1">
                    <mxGeometry x="542.36" y="340" width="185.29" height="157.5" as="geometry"/>
                </mxCell>
                <mxCell id="12" value="↑全受講者の平均グラフ" style="text;html=1;strokeColor=none;fillColor=none;align=center;verticalAlign=middle;whiteSpace=wrap;rounded=0;" vertex="1" parent="1">
                    <mxGeometry x="570.01" y="497.5" width="130" height="20" as="geometry"/>
                </mxCell>
                <mxCell id="13" value="開始時刻" style="text;html=1;strokeColor=none;fillColor=none;align=center;verticalAlign=middle;whiteSpace=wrap;rounded=0;" vertex="1" parent="1">
                    <mxGeometry x="610" y="190.01" width="70" height="67.5" as="geometry"/>
                </mxCell>
                <mxCell id="14" value="終了時刻" style="text;html=1;strokeColor=none;fillColor=none;align=center;verticalAlign=middle;whiteSpace=wrap;rounded=0;" vertex="1" parent="1">
                    <mxGeometry x="670" y="190.01" width="70" height="67.5" as="geometry"/>
                </mxCell>
                <mxCell id="15" value="ユーザ名&lt;span style=&quot;color: rgba(0 , 0 , 0 , 0) ; font-family: monospace ; font-size: 0px&quot;&gt;%3CmxGraphModel%3E%3Croot%3E%3CmxCell%20id%3D%220%22%2F%3E%3CmxCell%20id%3D%221%22%20parent%3D%220%22%2F%3E%3CmxCell%20id%3D%222%22%20value%3D%22%E9%96%8B%E5%A7%8B%E6%99%82%E5%88%BB%22%20style%3D%22text%3Bhtml%3D1%3BstrokeColor%3Dnone%3BfillColor%3Dnone%3Balign%3Dcenter%3BverticalAlign%3Dmiddle%3BwhiteSpace%3Dwrap%3Brounded%3D0%3B%22%20vertex%3D%221%22%20parent%3D%221%22%3E%3CmxGeometry%20x%3D%22600%22%20y%3D%22190%22%20width%3D%2270%22%20height%3D%2267.5%22%20as%3D%22geometry%22%2F%3E%3C%2FmxCell%3E%3C%2Froot%3E%3C%2FmxGraphModel%3E&lt;/span&gt;" style="text;html=1;strokeColor=none;fillColor=none;align=center;verticalAlign=middle;whiteSpace=wrap;rounded=0;" vertex="1" parent="1">
                    <mxGeometry x="470" y="190.01" width="70" height="67.5" as="geometry"/>
                </mxCell>
                <mxCell id="16" value="テスト単元" style="text;html=1;strokeColor=none;fillColor=none;align=center;verticalAlign=middle;whiteSpace=wrap;rounded=0;" vertex="1" parent="1">
                    <mxGeometry x="540" y="190.01" width="70" height="67.5" as="geometry"/>
                </mxCell>
                <mxCell id="17" value="ヘッダ" style="rounded=0;whiteSpace=wrap;html=1;" vertex="1" parent="1">
                    <mxGeometry x="220" y="80" width="620" height="60" as="geometry"/>
                </mxCell>
                <mxCell id="18" value="●●さん|logout" style="ellipse;whiteSpace=wrap;html=1;fontSize=12;" vertex="1" parent="1">
                    <mxGeometry x="706.9841269841269" y="85" width="93.65079365079364" height="50" as="geometry"/>
                </mxCell>
                <mxCell id="19" value="" style="rounded=0;whiteSpace=wrap;html=1;" vertex="1" parent="1">
                    <mxGeometry x="240" y="200" width="100" height="335" as="geometry"/>
                </mxCell>
                <mxCell id="20" value="&lt;span style=&quot;font-size: 12px;&quot;&gt;&lt;font style=&quot;font-size: 12px;&quot;&gt;メニュー&lt;/font&gt;&lt;/span&gt;" style="text;html=1;strokeColor=none;fillColor=none;align=center;verticalAlign=middle;whiteSpace=wrap;rounded=0;fontStyle=0;fontSize=12;" vertex="1" parent="1">
                    <mxGeometry x="250" y="201.25" width="80" height="60" as="geometry"/>
                </mxCell>
                <mxCell id="21" value="&lt;span style=&quot;font-weight: normal&quot;&gt;生徒一覧&lt;/span&gt;" style="text;html=1;strokeColor=none;fillColor=none;align=center;verticalAlign=middle;whiteSpace=wrap;rounded=0;fontStyle=1;fontSize=15;" vertex="1" parent="1">
                    <mxGeometry x="250" y="271.75" width="80" height="57" as="geometry"/>
                </mxCell>
                <mxCell id="22" value="テスト作成&lt;span style=&quot;color: rgba(0 , 0 , 0 , 0) ; font-family: monospace ; font-size: 0px&quot;&gt;%3CmxGraphModel%3E%3Croot%3E%3CmxCell%20id%3D%220%22%2F%3E%3CmxCell%20id%3D%221%22%20parent%3D%220%22%2F%3E%3CmxCell%20id%3D%222%22%20value%3D%22%E3%83%98%E3%83%83%E3%83%80%22%20style%3D%22rounded%3D0%3BwhiteSpace%3Dwrap%3Bhtml%3D1%3B%22%20vertex%3D%221%22%20parent%3D%221%22%3E%3CmxGeometry%20x%3D%22220%22%20y%3D%2280%22%20width%3D%22570%22%20height%3D%2290%22%20as%3D%22geometry%22%2F%3E%3C%2FmxCell%3E%3CmxCell%20id%3D%223%22%20value%3D%22%22%20style%3D%22rounded%3D0%3BwhiteSpace%3Dwrap%3Bhtml%3D1%3B%22%20vertex%3D%221%22%20parent%3D%221%22%3E%3CmxGeometry%20x%3D%22220%22%20y%3D%22180%22%20width%3D%22570%22%20height%3D%22380%22%20as%3D%22geometry%22%2F%3E%3C%2FmxCell%3E%3CmxCell%20id%3D%224%22%20value%3D%22%E3%83%86%E3%82%B9%E3%83%88%E3%81%AB%E5%AF%BE%E3%81%99%E3%82%8B%E8%A9%95%E4%BE%A1%26lt%3Bbr%26gt%3B%EF%BC%88%E8%87%AA%E5%8B%95%E7%9A%84%EF%BC%89%22%20style%3D%22rounded%3D0%3BwhiteSpace%3Dwrap%3Bhtml%3D1%3B%22%20vertex%3D%221%22%20parent%3D%221%22%3E%3CmxGeometry%20x%3D%22560%22%20y%3D%22309.5%22%20width%3D%22210%22%20height%3D%22220.5%22%20as%3D%22geometry%22%2F%3E%3C%2FmxCell%3E%3CmxCell%20id%3D%225%22%20value%3D%22%E3%80%87%E3%80%87%E3%80%87%E3%81%AE%E3%83%86%E3%82%B9%E3%83%88%E8%A9%B3%E7%B4%B0%22%20style%3D%22rounded%3D0%3BwhiteSpace%3Dwrap%3Bhtml%3D1%3B%22%20vertex%3D%221%22%20parent%3D%221%22%3E%3CmxGeometry%20x%3D%22420%22%20y%3D%22202.5%22%20width%3D%22150%22%20height%3D%2240%22%20as%3D%22geometry%22%2F%3E%3C%2FmxCell%3E%3CmxCell%20id%3D%226%22%20value%3D%22%22%20style%3D%22rounded%3D0%3BwhiteSpace%3Dwrap%3Bhtml%3D1%3B%22%20vertex%3D%221%22%20parent%3D%221%22%3E%3CmxGeometry%20x%3D%22230%22%20y%3D%22202.5%22%20width%3D%22100%22%20height%3D%22335%22%20as%3D%22geometry%22%2F%3E%3C%2FmxCell%3E%3CmxCell%20id%3D%227%22%20value%3D%22%26lt%3Bspan%20style%3D%26quot%3Bfont-size%3A%2012px%3B%26quot%3B%26gt%3B%26lt%3Bfont%20style%3D%26quot%3Bfont-size%3A%2012px%3B%26quot%3B%26gt%3B%E3%83%A1%E3%83%8B%E3%83%A5%E3%83%BC%26lt%3B%2Ffont%26gt%3B%26lt%3B%2Fspan%26gt%3B%22%20style%3D%22text%3Bhtml%3D1%3BstrokeColor%3Dnone%3BfillColor%3Dnone%3Balign%3Dcenter%3BverticalAlign%3Dmiddle%3BwhiteSpace%3Dwrap%3Brounded%3D0%3BfontStyle%3D0%3BfontSize%3D12%3B%22%20vertex%3D%221%22%20parent%3D%221%22%3E%3CmxGeometry%20x%3D%22240%22%20y%3D%22217.5%22%20width%3D%2280%22%20height%3D%2260%22%20as%3D%22geometry%22%2F%3E%3C%2FmxCell%3E%3CmxCell%20id%3D%228%22%20value%3D%22%E3%83%86%E3%82%B9%E3%83%88%E5%8F%97%E9%A8%93%22%20style%3D%22text%3Bhtml%3D1%3BstrokeColor%3Dnone%3BfillColor%3Dnone%3Balign%3Dcenter%3BverticalAlign%3Dmiddle%3BwhiteSpace%3Dwrap%3Brounded%3D0%3BfontStyle%3D0%3BfontSize%3D15%3B%22%20vertex%3D%221%22%20parent%3D%221%22%3E%3CmxGeometry%20x%3D%22240%22%20y%3D%22292.5%22%20width%3D%2280%22%20height%3D%2257%22%20as%3D%22geometry%22%2F%3E%3C%2FmxCell%3E%3CmxCell%20id%3D%229%22%20value%3D%22%E3%83%86%E3%82%B9%E3%83%88%E7%B5%90%E6%9E%9C%E4%B8%80%E8%A6%A7%22%20style%3D%22text%3Bhtml%3D1%3BstrokeColor%3Dnone%3BfillColor%3Dnone%3Balign%3Dcenter%3BverticalAlign%3Dmiddle%3BwhiteSpace%3Dwrap%3Brounded%3D0%3B%22%20vertex%3D%221%22%20parent%3D%221%22%3E%3CmxGeometry%20x%3D%22220%22%20y%3D%22352.5%22%20width%3D%22120%22%20height%3D%2267.5%22%20as%3D%22geometry%22%2F%3E%3C%2FmxCell%3E%3CmxCell%20id%3D%2210%22%20value%3D%22%22%20style%3D%22group%22%20vertex%3D%221%22%20connectable%3D%220%22%20parent%3D%221%22%3E%3CmxGeometry%20x%3D%22340%22%20y%3D%22252.5%22%20width%3D%22440%22%20height%3D%2240%22%20as%3D%22geometry%22%2F%3E%3C%2FmxCell%3E%3CmxCell%20id%3D%2211%22%20value%3D%22%22%20style%3D%22rounded%3D0%3BwhiteSpace%3Dwrap%3Bhtml%3D1%3B%22%20vertex%3D%221%22%20parent%3D%2210%22%3E%3CmxGeometry%20x%3D%2220%22%20width%3D%22420%22%20height%3D%2240%22%20as%3D%22geometry%22%2F%3E%3C%2FmxCell%3E%3CmxCell%20id%3D%2212%22%20value%3D%22%E9%96%8B%E5%A7%8B%E6%99%82%E9%96%93%22%20style%3D%22text%3Bhtml%3D1%3BstrokeColor%3Dnone%3BfillColor%3Dnone%3Balign%3Dcenter%3BverticalAlign%3Dmiddle%3BwhiteSpace%3Dwrap%3Brounded%3D0%3B%22%20vertex%3D%221%22%20parent%3D%2210%22%3E%3CmxGeometry%20x%3D%2270%22%20y%3D%2210%22%20width%3D%2260%22%20height%3D%2220%22%20as%3D%22geometry%22%2F%3E%3C%2FmxCell%3E%3CmxCell%20id%3D%2213%22%20value%3D%22%E7%B5%82%E4%BA%86%E6%99%82%E9%96%93%22%20style%3D%22text%3Bhtml%3D1%3BstrokeColor%3Dnone%3BfillColor%3Dnone%3Balign%3Dcenter%3BverticalAlign%3Dmiddle%3BwhiteSpace%3Dwrap%3Brounded%3D0%3B%22%20vertex%3D%221%22%20parent%3D%2210%22%3E%3CmxGeometry%20x%3D%22140%22%20y%3D%2210%22%20width%3D%2260%22%20height%3D%2220%22%20as%3D%22geometry%22%2F%3E%3C%2FmxCell%3E%3CmxCell%20id%3D%2214%22%20value%3D%22%E5%90%88%E5%90%A6%22%20style%3D%22text%3Bhtml%3D1%3BstrokeColor%3Dnone%3BfillColor%3Dnone%3Balign%3Dcenter%3BverticalAlign%3Dmiddle%3BwhiteSpace%3Dwrap%3Brounded%3D0%3B%22%20vertex%3D%221%22%20parent%3D%2210%22%3E%3CmxGeometry%20x%3D%22270%22%20y%3D%2210%22%20width%3D%2260%22%20height%3D%2220%22%20as%3D%22geometry%22%2F%3E%3C%2FmxCell%3E%3CmxCell%20id%3D%2215%22%20value%3D%22--%22%20style%3D%22text%3Bhtml%3D1%3BstrokeColor%3Dnone%3BfillColor%3Dnone%3Balign%3Dcenter%3BverticalAlign%3Dmiddle%3BwhiteSpace%3Dwrap%3Brounded%3D0%3B%22%20vertex%3D%221%22%20parent%3D%2210%22%3E%3CmxGeometry%20y%3D%2210%22%20width%3D%2260%22%20height%3D%2220%22%20as%3D%22geometry%22%2F%3E%3C%2FmxCell%3E%3CmxCell%20id%3D%2216%22%20value%3D%22%E8%A7%A3%E8%AA%AC%22%20style%3D%22rounded%3D1%3BwhiteSpace%3Dwrap%3Bhtml%3D1%3B%22%20vertex%3D%221%22%20parent%3D%2210%22%3E%3CmxGeometry%20x%3D%22370%22%20y%3D%2210%22%20width%3D%2250%22%20height%3D%2220%22%20as%3D%22geometry%22%2F%3E%3C%2FmxCell%3E%3CmxCell%20id%3D%2217%22%20value%3D%22%22%20style%3D%22shape%3Dimage%3BverticalLabelPosition%3Dbottom%3BlabelBackgroundColor%3D%23ffffff%3BverticalAlign%3Dtop%3Baspect%3Dfixed%3BimageAspect%3D0%3Bimage%3Ddata%3Aimage%2Fpng%2CiVBORw0KGgoAAAANSUhEUgAAASwAAAD%2FCAIAAADEwnwXAAAXk0lEQVR4nO2d25LjKgxFlVPz%2F7%2Fs8%2BA0wVwFSELCWjVV4yQ2YGAjce3PdV3gOM4%2B%2FtudAMd5Oy5Cx9mMi9BxNuMidJzNuAgt8fl8Vm4eetwRw0XoOJv5tzsBzjBtg9aec4qf9dkpJXy8JKzw%2BaSFFb5JfkpUWrvHi14J7o4eyHVdt8DCxY33CXXiIrTBon5uu3dd1x2Om0FVeGHY4BZPcCwbdyb35OXrCtSGW0ID5LLJHc7E82wH9R6%2FFPOm8T21a1ZchCeT6C2I%2BSU6RLY4xXsk%2FQWfojDAaG3IK1%2FszYYw8y%2BPIX612psmwgsf84v8WVpchIcTV8S8vberwFoLknwfRqSKjyBfn9trcBG%2BiLYpsE7XsNekuB0X4YGoqmEcFFcpxNYvuTlcx8NXtftjgh9BlvQSLkLnQIqy6YoNfz8tLkKTtEcRuk8dj6039Xlbhxjy%2Bp%2FU0O4i2NrsQuP7etQS6nBL6FCixAINWcLt69pdhA4l3BU4rH1NvsxXFBV%2FUjg0Ci5CE5w0v7dObW6wdnO8dAHzbHEjGCsuQhu8WXWLBB3Wfo0%2FujvqOC1qCsllls8N6nREb3x01ADyDpJFMEs94x1e04M35LgIDTB6MoXvGLSFu6MGwCsqmbt3KZrA9xOeQ7xjIO4IOcpxER5C0QV1HZrARWiAtpDujYKNIfjiTkJHD94ntA1mDCbf9eOowi2hAYI1S4zekK7e6ZqaOOjJLaENipviRy2b8jlrcsKCtfb7Fu%2BRdBzcRbHH%2Bjzh8a5pftIMVBoyJH7Qk%2FODRD8Y%2B6CT7lp2P%2BjJYYTWk7Trmtb8RrsHPZlsDl%2FIkOHiu3k7xdQ2Vm8n%2BM56ZwbultuuSWzgBz05ZMiYKdMTiTXbuCUxc7gI9SKsCrLRGvL6nx309PixssMw%2F7KhzL2idRFqZJd%2FSOCa8ldmzISeH%2FTkLLHXLVx1TcUTXjTgftCTM4%2BSjpndicQEP%2BjJGUBbI21l1HRuVVr861BoHLgIVaDT7OgcNcVYKj%2FoyRlgonLILw3VXIMDftCTM8OEWjB6YLJd2kziMfh%2Bwm3MKXDvwKmtSXAreJ9wA3PenQZDpLxzZRQXoTSsWgpdns%2BH62%2Bz6BytMY27o6JM113EYEz6Z8lYPUd3TQlxEQrRPhOt%2B2zjwUR%2Bt6EKP%2FFx%2BTluRLhTIcGi81as6Nd1JV%2BHGP7WiKTfM%2BGu6SKefezwzNolAZb%2FWEV8dBjvTJfrcAF3RxlZcUHrYaZfXFd1rDI%2BToXVb3TXdAUXIRfxEUNEARb6ft3wJXXoozVzuBdBD8dMWiK%2FdhSlUzR%2Fl%2BRpy2PnjuIwfJ6QGFb%2F8w54Iorr%2BoYjMMvnE4mjuDtKCW3Ny%2F3PlU7mn4Dva%2FYunLumeNwS0kDrgxXnHqgUfi%2BmkTGJ7ppicJ%2BBAMKq3J76W09PPnko4De6a9rGc2cVQgMVE4sESDccFnU4GsUorsMGnjXzUNXdmvxgtu5iFppSxTWUKnDXtISLcBKSKtuQ30oUmAe36FAmCnN4jsywXpO68oMFo4FMXk2HK1FjcB0meHaMsV5H2%2FIDGoVjQ6gt8nbXVBIX4QDLmyEeH4shEXm5Q0Op5fS4ayqG5wKKZf%2Fw8bEmv5UokqAGR1PLCZNxTbmj0I%2BLsM9Kg42R32IUJKE1Nh%2B6SeTm1S%2BPYWGI8vGxIT9AmALMoZrxzVMTGyH8cuw%2BWsPEe9%2B8y0rNy1dd16LADWOW9%2BwuBlt68HvB119txv5S19QXcJeZ3g0Yr7q%2BLgIFShKtoSn%2B6jsSWVBXDzSw6M7dtOUHfNOASR0ej6RrD8FdU1Le9bZdZo%2FlfXxsP804Ddg2ISNxdg%2BJcteUEBfhj5VBxZvu0yTHrnUV%2BPn7cNWUh0jCdh3KRKGBV7wkhum5tRuM%2FIBpGjBOyfW44XdnzUh2jDYAp1%2BN4Q06PP8Nu4zWpFH5AYUBrI6OZgpMbihEXRRk1dwB8DvYbY53Td%2B%2Bs35uhdcNUn7AV4E%2B4f%2FWX6JN0xBujF8nXJcHY1ovy72DXuAQgL28V4RD9WZCfsBab54GsNr3u3%2BvVWKEGq%2B%2FE6K6OixHQQe31DdybOvSZmKfwQ0%2Bt8hXov3SEEtuZFa9n6RK1%2FEnTOaRJwznmcTT3gfD6Ha7myH5wVYXtHnGDC5tdTVKDkE1ojip3h71Ml3QCzUfH4dySMwFXUnDWCJHBnImoxjnJNf0RSIcOvThZjRvNCgQmYyZpA6q0V1TJCe8Awb82Uc3E%2FIDpob5OQs%2FseC7cRtMLQ%2BqjMOSRTGYHvN12PwLdOnWg0X5gRoD%2BHuI6JDS%2BiO9FCUTk%2B6aNjl8F0V3M0Sy50inAj9Qsz4ETGxceKwUuEpa%2FPz9m41iMD22t18cawmHDOBcHqhyQR9Pzxi3iSOGvxfpQ5Wuox%2BWUeNMEbZr4br%2F2Y1iiSkX9BEA54Glz%2Fu%2FF%2BWHSmqcaFNGMddLNJZcDM1ZssfHwwzg79mlQ3FIdfi9qfQlZ72zpUNLae3SkAeJ%2FEDKAC6aC8YNU%2BX7vxf9J6Y2c8xhyDU9R4T1tVqPjyuvKzMGsx4FSTrnlrZjn5BSowmTaCCJGIp5TSs%2F0O2CPoIk%2B0NRnDoMURSVR5fT%2BnWoPX1divIglB%2BocUHxDQFhguf2mkyuNGLrOip3TW2LMK9ttPIrRkHDoAEsbJZH3EzF6KaT1elWHjWqNYlKk4Uh22%2F%2B%2BJVEfqDDBW3trEfcT4KMDiHJcOquo04dmtzUm5QWufxAbB2MYh8p4RrcU9veBFyLApKcDyEkamyeA9COQqFrqrFhaPM8QOXxE5X8QIcBrAazwxIOBT7dOQxRQKMIKJxVVSZRUVK6xGXDIT9QMwbTCqazGOiRL0zvgmmnFnUImLJYU6Mek2hGhNHIxON7wuTrnwbsKjDx6PaaRAkdfu8rfYmLVINJRA2L55Qm5ao1YP09iwqklR%2FodkEBrcDGNTkyOgR80UwN5NDO6EwE1R%2BYKeqteBtH2YcyYJIfWHBBoZnIdjVlHYroBn7hDmtrRwH4MpoayNk%2BWjPTxS%2FNzlUN5vpiYj7%2FE%2FgUSLoOpq1ATAG1A1kHuW1lJf759KOdVWQUcW3PhcBiCTHEBjD5BjKJose4PwC8BhCfmMGg40tKjyAw4ecvNogrga%2FbQ1ixV0XzWLKN%2BCwK%2Bf8NLCqdhkRrUM4T%2FhmuT%2FIyoz7qLb84e8hrjq1pwFqPYDTwja4plQ5hpewQapzLosVeWF%2BENVczvyeOfjq%2F7pCicIaeRkZhwAVtxbOQftZR03bgJDoEEpPeVON9oLnkqGlHhMh05PKbgLXv9xeFJRe0HA9F5djlmtLqENaLsj6Qc8EFH%2FqtVUWIl63lA6RDCyxuuPxEEQMIW6fI8exyTQl1CIRlGofR6zomJK7ixAhIWYS5C5r0RBvf19xXTH7xyQ%2FcAGbsck2pdAhMTUnNPNbT8L29NCqJoWoJa8Obxe%2FzHA%2FXQ54Ph1okpgE5uxDcU1gCJpFbh8BQyt88QfujtVFJDGTuKGb8pkYoksSurmerkAv6YXRBBYYHuE1iUeSEOoTBtr5BWvfuT8wlQNknrLUEuAz6zgpeF4F9B1YDYtkFbcA3WlMTOYcOYaG2pM%2FeaYPCARx5P3C8wv8gE2HsfCY%2FDdnouDxyNQIuiwUMoGkXtIa8axp0SBUFUCx8AWh1CJObK%2F72gA6JJ%2Bshywhk5%2FCv%2BO9H0nax0REtJsNd0GnkXdNbhyTGMI6lUT3CbdUg0LteulV6fnQUmoOctS8Ti5wnsZssTLvYcFYlXFDmady9CgzIu6ZA5JSGWJLKMNO1ufoDpO3QsOORGor8JjKeACPTFYQDOaXQo2sjLihVIlm94iSRJIu8i7H8BYuvT%2FcD38cFBKJIhPDrPX4%2FDiVttN%2BICzS%2BlKuRB4eWhAwPY%2FX9fj22%2Bcog5fLEaPzTaOHFh7rsoed5uyI3S%2BmIywM%2Bd8hLAdbiGZxHFaY42EYVchz4XLnHhHIPhTWtQEmUnra2OGi2Osmh0gXdosAbsVHTuUkL4v6IuGuoS4R5eZCsMIShclI5CrpRgTdio6Z4HRJr7zkvLzlCpkuERfA6bIzpodSo0gB%2Bk%2FOnAY70DCWDySTGIm%2FrEKm9seLbmq%2BqRUi7ouIvzMoCAEEFqhoMG0XAJOY6ZBl1C2zqCgbUiTCxZrQrKpKIfh%2BeY2JKXNC58OMLvrhYJxJD4v90KNJsxdVBtqHUODqacH1nbJA3Tw3lRT2B4WdxhFE7pvDh58s9Ron5oguj0Ezhr3T5BrJaZIl2G3WWsAGhU9og6X2pmj0fjYLPXoXwa1FPkOT56JqNqSg5A0ejUYR51eHoHLajXp3kiJBxQWtRsM4uxFGs5E8IJ%2FqSIGG9iP8ungmX77RrFGERfOeQtvlfUSN37QdcjWEdSglRjL4sJj%2Fn0jv2pgrGyMyIEBiW2w%2FGPqbGXS5oDSWuKSb35BxRBQoEtSJs1xhWHXYrK0aNrFsQYNbGbnRN8X6EqCNaiH3DBJJSEdZAdg65W%2F0Qy30R1zAlLmgNYdd0ukc9nbr%2Bq%2B2eFcwxJkLgmzm8AD4wd9RkrkamWk6lcNbGYiUTwqPsElGjQNAswoY14%2B4crhhSwmHVBFphk5vE%2FH1HpxCjrUxsEml2BXctZtIrQgwNHcp4pI1IadXIvUxsOoTa2y0EO28GO5HqmBXMsSpCsZnDdRbVKDOUMpeq0aeaAd6hsQ3M6OsKBlSLsN1OMxYYjyGdUKOMMce7puTa%2Bwv2Fz7v%2BzbM5L6F9apF2GXvzGERjHqRahSuFo2Uj2pvLuXsZlBNJUmwLcJAUYdbuoVD1NQoMM9RS08cNZPdS6Camq%2BWtdauYEC7CBFT51ydQ0kN842pTqQk7I0QSENs%2BlhyG9cV3NtYG9jK1IUs9%2B5wlhvOeJJ64lmIlMC6FykhxJiM7k6EIzY1j46AOfw1tFtCJLXOoX6PNCdJc6xD8hcpBi6WY4RrRMtp1t0VDBgQ4ZCQaJ1SDRqOtUHlrG53eiFbI0qfz2gfYnsRGxAhElUzh%2BTqTWzjypTj6FNDjL41V0IUzwrmnCNCqIxxa7Bmo%2BQeaZz%2B%2BFfczqAB7cnkFe1mpWqajZT5USIElTOHrDSGVeV9TqSA2QebjHQFAzZEOGHNqHQ4bUiFLXCiPf3GP04dZWoHFa4ho06YokgIWRqvyseO9RPNUqyzPs8xgUCNJN81%2F0izqa5g4EARgsC8E44VIZkDt%2FRUJCk6Sh%2BPGRGOVui7PpCUuiEtxVPtatOcSJXM%2FI53BTX4omBIhNP8%2BT96K2WN0TQXB1GnHyeH4%2FimX5qNle2Dk0WYdw53pIFA%2FEkgRbUUvxRreroC5k2Fza5gwJIIJ6oUVbu73ZDGq0k57JXUxkXOeAeDUeKLgi0RzhE6h9uFNEGc5uuP%2FLbm1uf9b810juj3ra3NCuacL8LArqrILQPMHuKNCRByRC1jTIRz9SkerUDcDQCF0t1lUtrxIn0qkkBWKO%2B2XYv3CqU5HoYeXxTMiXCaaJDmiMbTCHwH2v%2FKUYuU5nmLCOFXFTYUGpMVHWrO5dPA2tx9zaB9BYJFEa5XpumnVXmkUxvYacIZjLT8%2FVK8a4WgyhcFiyJcQcPM4Uvgc0StzwrmvEuEsG9ZKa0VnW7LZZIh0cadokAwKsLlmnRv9tkS9SRxvKuDinRB9SKq%2FjQf7314woI%2Fqs0XBaMiXCTaele74%2F5ZJjljkNQh1qZEwBHVpqJF3ihCAAjlKWnVNCxeIaSyhJUvvvD%2FOXl4Y1WE6xV6ujHd65FSGQHWjf%2FtUJfiXUuvQl8UrBxvQU6ogoYOpAnnVtCGSXokHACrI3opVdEiLxVhgpgOp%2B0PX%2BWjSo%2BAI3oqVt1RINuq970YCumw3h0hXTkPa55uVlCtFTUswkWCkFSWywPmiQSCBoXREb357kdTqqJF3ivCGMIDaRBx6Tp1ApaTxO6IHqi7B7ZFSO4WfhLnpx62e6QJmIZirEEhzV3NVtS2CAnRuaxUrOrg25SiGaRP43ELRBu8WoRJzRNrKJE1XrjxnrDt7A0W0yndyjAvQlq3cKhzyLz4a0OdWz64oMXAG1F3BZUL2LwImeBu4412KePazO6Ivoa3izAXg4YWc2PLjXaVeaKvdAWVm7JFThAhuVXBFzeHQdte4fAvNTDSOfRSTKd0a%2BUEEXIQzrPk8462HDaBpJ02Xkd0%2F9tL4yK02j3bBbsjWohRRcPExyEi5BAScuaQMGpVta39XmPLP7vvxTYrqCpLaxwiQqOInTQxR5483jWiut5eDhchAMKaubsK3I4ox8mIRjhHhPx%2FcYExarVVbX0Kp%2FNqnK2b2lxNOEeEfLAuK2U9ZoKEPx1eQO6IvmmBaAPfWf%2BlLYbr4nLGOA6toOPKLjgjyVDePFFxlAjprcoF8AH4AFxfHXIchKGtntUaBBYzyPbqhgR8lAhlKOpwTv96KgpGeJQvqNPwb8L7hD%2B64yu0ncPtCrwN%2B%2F0v4bq%2B%2F55fEg194bqC2%2FNHjNMsIfc4B1XncGMNW%2FE2KbOX8%2B1tCfg0EQpQ6xxqHucU6ualkZZy460LRBu4CB8MCWl6kEZGq82Jzflgl9oatBOhtjnj4MA%2BocCC7JXOIXf16nbz1iOfzGGpWUFzAnZL2COapXh8Xeoc7vJIt3ibbar5YEkdQhxoCRcZ3dI6ZBIIJTo6tknLsDEc6QqaM2WLnGkJhS0SsnO4niSmbt4cA5ksOCtoUcBuCZfIO4c1E7FSOQS6eXOgXtYXiPY40xIuMmRImZaVKuzmLcF0Gs0RHGsJJQ%2Bt6HYOkRVrbzdvjk4%2By84KGhWwW0JK7s5hYki7NcO60au%2Bry8QxeEiLDM6tBOcUvQgTTWcQ5jqCho1ZYsc644CoUd614peSOXdAs8jq815m0iqWS34RnYF7JaQkmhZafgLpNf5Rg8A4PHKvkB0CBdhlZXJxrs2QsHt%2FDzvOZHZ97JryhY5XITy68gqy9l%2Bl2IpkaOoOtkXNS3gw0W4heuyXSf6dG3dua%2FOgYuQngMVOKi6A3OAk1dk1tqSsc%2FQSMMh9W%2FZ1o3mA0EZmcUtIY7KhqZDwAylHPniOnARUmKmSeZXnebDPrThIuyAr0yq69yOoZRDso6fV4jwja3yawYwDyjZV4hQgP1VQaXq3tj8jeMi7POtSfVavKeeqVRdTleHrtK3iJCvSZarQ0ZUl3NC5nPyFhGaxKzqnCFchCh%2BHulzqpC4JT5XdTVjeIYpW%2BRFIiR3ighCO1d1ORrzXwcvEiEtMzXg9QtTfLC0iIsQy28FKZ7Xq66NC%2FLmXSKkaonn%2F%2Fbl66scexEY5F0iJKF8sm2NQ%2BoJJe6UJrgIh%2FmOkdZ%2FdjC4DgOvEyH9GF2iyFNPjtHEYQJ%2BnQhX%2BJT2QDeWszltDtPSNCefO0qL1xhyJP9UgWbeKEIve9Oc1xq%2BUYQTnFfwSvAGEVyEGFyBrLgOXypCfMG7AgV4eXG8VISOowcXYYsj212dvNkpfa8Iu6XuChTmtSXyXhE6jhJchGVObXSV806n9NUirBW5K3AjLyyUV4uwyMGFbYW32UMDIozLY7RsXlWW76FmKlce34gBEd58Pp8775KL8DHcNhRs0ui6GVTCq8pF%2B1amkPvxPsC7eMhL5eySNgdy52etCY6rSvup5BF5VItwThVJ%2FubZXQzTFaiQXIehNENDXLwn%2Ftj4KWajj6pXhLHdC85JXAaYk2Qx0nrbMIA54kKMq0S4IfGSzDWmekWYZGVRco1fJ3ApmqPoi4aL204mNySlrEGxekV4k%2FQDY5KWb6UJ1FASzihDJV4cRyBvx%2BfQLsKYYt%2Bg%2BKtzPO1%2BYHInlPxYPY6rahF2h1i6j%2BTfKMl3Z47Y1YSKOxoI4%2BrxN0kIGtArwng8BqIsazdgEwMzjiES7RVrRW3QLn8k%2BWYXekXYcD6Z5gkdo2AmHgpnVapRo14Rxlgfg3b4iD2mfM4wV1rO9upkQ4T5JOF9sT37nO3EHb9QT4oVo7ZIgzmBfWyIEDkO5ryWpIdiq5LYEGENzNJtVasEnXWKhZ4v7SgunxJI3gSWGgzHORIzW5kc51RchI6zGReh42zGReg4m%2Fkf4lSWGCU1HWMAAAAASUVORK5CYII%3D%3B%22%20vertex%3D%221%22%20parent%3D%221%22%3E%3CmxGeometry%20x%3D%22360%22%20y%3D%22310%22%20width%3D%22185.29%22%20height%3D%22157.5%22%20as%3D%22geometry%22%2F%3E%3C%2FmxCell%3E%3C%2Froot%3E%3C%2FmxGraphModel%3E&lt;/span&gt;" style="text;html=1;strokeColor=none;fillColor=none;align=center;verticalAlign=middle;whiteSpace=wrap;rounded=0;" vertex="1" parent="1">
                    <mxGeometry x="230" y="325.5" width="120" height="67.5" as="geometry"/>
                </mxCell>
                <mxCell id="23" value="&lt;span style=&quot;font-size: 15px;&quot;&gt;&lt;font style=&quot;font-size: 15px;&quot;&gt;テスト一覧&lt;/font&gt;&lt;/span&gt;" style="text;html=1;strokeColor=none;fillColor=none;align=center;verticalAlign=middle;whiteSpace=wrap;rounded=0;fontStyle=1;fontSize=15;" vertex="1" parent="1">
                    <mxGeometry x="230" y="383.75" width="120" height="67.5" as="geometry"/>
                </mxCell>
                <mxCell id="24" value="講師新規作成" style="text;html=1;strokeColor=none;fillColor=none;align=center;verticalAlign=middle;whiteSpace=wrap;rounded=0;" vertex="1" parent="1">
                    <mxGeometry x="230" y="437.5" width="120" height="67.5" as="geometry"/>
                </mxCell>
            </root>
        </mxGraphModel>
    </diagram>
</mxfile>